<svg preserveAspectRatio="none" width="100%" height="100%" overflow="visible" style="display: block;" viewBox="0 0 24 24" fill="none" xmlns="http://www.w3.org/2000/svg">
<g id="Employers Logo">
<path id="Vector" d="M18.4835 13.1387C17.397 13.1387 16.379 12.6799 15.454 11.9329L15.6793 10.8783L15.689 10.8393C15.8896 9.71649 16.5259 7.83187 18.4835 7.83187C19.9516 7.83187 21.1457 9.02316 21.1457 10.4877C21.1408 11.9474 19.9467 13.1387 18.4835 13.1387V13.1387ZM18.4835 5.1419C15.9826 5.1419 14.0447 6.76276 13.2568 9.42837C12.0529 7.62685 11.1425 5.46414 10.6092 3.64309H7.91751V10.6293C7.91751 12.0061 6.79188 13.1288 5.41178 13.1288C4.03168 13.1288 2.90618 12.0061 2.90618 10.6293V3.64309H0.214259V10.6293C0.204466 13.4903 2.53889 15.8385 5.40669 15.8385C8.27461 15.8385 10.609 13.4903 10.609 10.6293V9.45768C11.1326 10.5463 11.7737 11.6447 12.5519 12.6212L10.9026 20.3543H13.6579L14.852 14.7449C15.8993 15.4137 17.1032 15.8337 18.4833 15.8337C21.4343 15.8337 23.8373 13.4219 23.8373 10.4779C23.8373 7.53893 21.4343 5.1419 18.4833 5.1419H18.4835Z" fill="var(--fill-0, white)"/>
</g>
</svg>
