<svg preserveAspectRatio="none" width="100%" height="100%" overflow="visible" style="display: block;" viewBox="0 0 23.9848 20.1977" fill="none" xmlns="http://www.w3.org/2000/svg">
<g id="Cwb6Ph.tif">
<path id="Vector" d="M4.17132 14.2664C4.08109 13.7783 3.9638 13.2993 3.90064 12.8112C3.64801 10.9042 4.05403 9.14182 5.18184 7.56921C6.06605 6.33101 7.27507 5.4724 8.66455 4.87589C10.3337 4.16189 12.1292 3.77326 13.9427 3.73711C15.5578 3.69192 16.9653 4.28843 18.1924 5.30068C19.4555 6.34909 20.4299 7.64152 21.1788 9.09663C21.5397 9.80159 21.8736 10.5246 22.2164 11.2477C22.2525 11.329 22.2796 11.4194 22.2976 11.5098C21.8194 11.799 21.3593 12.0972 20.8721 12.3593C19.0675 13.3535 17.1187 14.0314 15.0886 14.3839C13.9788 14.5736 12.86 14.6821 11.7412 14.7544C10.6766 14.8267 9.61191 14.8629 8.54725 14.8358C7.09462 14.7996 5.65102 14.5736 4.17132 14.2664V14.2664ZM6.46305 9.422C6.43598 11.0127 7.7262 12.2961 9.29613 12.3142C10.8119 12.3322 12.2285 11.1663 12.2285 9.45815C12.2285 7.68671 10.866 6.566 9.34124 6.566C7.76229 6.566 6.47207 7.84035 6.46305 9.422ZM17.5518 10.2535C18.4089 10.3168 19.3653 9.60276 19.3743 8.42782C19.3833 7.45172 18.5984 6.65638 17.6239 6.64734H17.5878C16.5954 6.62926 15.7833 7.42461 15.7653 8.40975V8.43686C15.7653 9.46719 16.5322 10.2535 17.5518 10.2535V10.2535Z" fill="var(--fill-0, white)"/>
<path id="Vector_2" d="M22.3518 11.9165C22.4781 13.4349 22.0991 14.7725 21.3412 16.0017C20.3127 17.6647 18.7788 18.7131 16.9743 19.3729C15.1337 20.0417 13.1758 20.3038 11.2269 20.1592C10.063 20.0778 8.8901 19.9061 7.84348 19.3548C6.03897 18.3968 4.92018 16.8693 4.33371 14.9262C4.30664 14.8087 4.29762 14.6822 4.2886 14.5647C10.6495 16.0379 16.6856 15.3871 22.3518 11.9165V11.9165Z" fill="var(--fill-0, white)"/>
<path id="Vector_3" d="M22.054 6.39427C22.5232 6.22255 22.5232 6.21351 22.4781 5.77065C22.451 5.51758 22.442 5.26452 22.5683 5.02049C22.6224 4.92108 22.6134 4.79454 22.6224 4.67705C22.6405 4.31553 22.9382 4.03535 23.2991 4.03535C23.66 4.03535 23.9668 4.32457 23.9848 4.68609C23.9848 5.04761 23.6961 5.34586 23.3352 5.36394C23.2179 5.37298 23.1006 5.36394 22.9382 5.36394C22.9202 5.5447 22.8841 5.70738 22.9021 5.86103C22.9563 6.30389 22.8841 6.67445 22.3788 6.86424L23.4074 8.68992L21.8645 9.64794C21.2149 8.1386 20.2224 6.89136 19.0315 5.75257L19.9518 4.63186C20.8089 5.03857 21.4495 5.6893 22.054 6.39427ZM3.48561 11.9888L1.98786 11.4827C1.91568 10.5789 2.10516 9.73832 2.43899 8.91586L1.91568 8.08437C1.72621 8.08437 1.53673 8.12052 1.37433 8.07533C1.01343 7.99399 0.661547 7.88553 0.327713 7.74996C0.0660586 7.64151 -0.0512346 7.27999 0.0209459 7.01789C0.120194 6.70156 0.417938 6.50272 0.74275 6.52984C1.04952 6.55695 1.30215 6.79194 1.34726 7.09923C1.36531 7.24384 1.34726 7.39748 1.34726 7.57824H2.14125C2.47508 7.71381 2.45704 8.12052 2.70967 8.38262C3.20591 7.73189 3.69313 7.08115 4.43298 6.62022L5.11869 7.15346C4.59538 7.8765 4.03598 8.55435 3.84651 9.39488C3.65704 10.2444 3.6029 11.094 3.48561 11.9888Z" fill="var(--fill-0, white)"/>
<path id="Vector_4" d="M9.62095 4.36066L9.31418 3.60147C10.1623 2.92362 11.1277 2.64344 12.1473 2.50787C12.1653 2.23674 12.03 2.11924 11.8224 2.01079C11.1187 1.64927 11.0014 0.799696 11.5608 0.284532C11.8946 -0.0227598 12.2916 -0.0679497 12.6886 0.085696C13.0495 0.212228 13.3021 0.546633 13.3292 0.935266C13.3924 1.35101 13.1939 1.75772 12.833 1.9656C12.7337 2.01982 12.6255 2.06501 12.5262 2.1102L12.6345 2.45365C13.5458 2.43557 14.439 2.44461 15.3232 2.79709L15.1969 3.54724C13.3292 3.55628 11.4345 3.45686 9.62095 4.36066V4.36066Z" fill="var(--fill-0, white)"/>
</g>
</svg>
