<svg preserveAspectRatio="none" width="100%" height="100%" overflow="visible" style="display: block;" viewBox="0 0 28 28" fill="none" xmlns="http://www.w3.org/2000/svg">
<g id="Employers Logo">
<path id="Vector" d="M8.96959 27.9999C11.5048 27.9999 13.5624 25.9093 13.5624 23.3333V18.6666H8.96959C6.43436 18.6666 4.37679 20.7573 4.37679 23.3333C4.37679 25.9093 6.43436 27.9999 8.96959 27.9999Z" fill="var(--fill-0, #0ACF83)"/>
<path id="Vector_2" d="M4.37679 14C4.37679 11.424 6.43436 9.33335 8.96959 9.33335H13.5624V18.6666H8.96959C6.43436 18.6666 4.37679 16.576 4.37679 14Z" fill="var(--fill-0, #A259FF)"/>
<path id="Vector_3" d="M4.37719 4.6667C4.37719 2.0907 6.43477 3.44374e-05 8.97 3.44374e-05H13.5628V9.33337H8.97C6.43477 9.33337 4.37719 7.2427 4.37719 4.6667Z" fill="var(--fill-0, #F24E1E)"/>
<path id="Vector_4" d="M13.5625 3.44374e-05H18.1554C20.6906 3.44374e-05 22.7482 2.0907 22.7482 4.6667C22.7482 7.2427 20.6906 9.33337 18.1554 9.33337H13.5625V3.44374e-05Z" fill="var(--fill-0, #FF7262)"/>
<path id="Vector_5" d="M22.7482 14C22.7482 16.576 20.6906 18.6666 18.1554 18.6666C15.6201 18.6666 13.5625 16.576 13.5625 14C13.5625 11.424 15.6201 9.33335 18.1554 9.33335C20.6906 9.33335 22.7482 11.424 22.7482 14Z" fill="var(--fill-0, #1ABCFE)"/>
</g>
</svg>
