<svg preserveAspectRatio="none" width="100%" height="100%" overflow="visible" style="display: block;" viewBox="0 0 28 28" fill="none" xmlns="http://www.w3.org/2000/svg">
<g id="Employers Logo">
<path id="Vector" d="M21.564 15.3285C20.2965 15.3285 19.1088 14.7932 18.0297 13.9217L18.2925 12.6914L18.3039 12.6458C18.5379 11.3359 19.2802 9.13718 21.564 9.13718C23.2768 9.13718 24.67 10.527 24.67 12.2357C24.6642 13.9387 23.2712 15.3285 21.564 15.3285V15.3285ZM21.564 5.99888C18.6463 5.99888 16.3855 7.88988 15.4663 10.9998C14.0617 8.89799 12.9996 6.37483 12.3774 4.25027H9.23709V12.4008C9.23709 14.0071 7.92386 15.317 6.31374 15.317C4.70362 15.317 3.39054 14.0071 3.39054 12.4008V4.25027H0.249969V12.4008C0.238544 15.7387 2.96204 18.4782 6.3078 18.4782C9.65372 18.4782 12.3772 15.7387 12.3772 12.4008V11.034C12.9881 12.304 13.736 13.5855 14.6439 14.7248L12.7196 23.7467H15.9343L17.3273 17.2024C18.5491 17.9827 19.9538 18.4726 21.5639 18.4726C25.0067 18.4726 27.8102 15.6589 27.8102 12.2243C27.8102 8.79542 25.0067 5.99888 21.5639 5.99888H21.564Z" fill="var(--fill-0, white)"/>
</g>
</svg>
