<svg preserveAspectRatio="none" width="100%" height="100%" overflow="visible" style="display: block;" viewBox="0 0 28 28" fill="none" xmlns="http://www.w3.org/2000/svg">
<g id="Employers Logo">
<path id="Vector" d="M15.1808 2.43714C17.0195 0.012427 19.5759 0.000606056 19.5759 0.000606056C19.5759 0.000606056 19.9561 2.28025 18.1294 4.47626C16.1789 6.82113 13.9619 6.43743 13.9619 6.43743C13.9619 6.43743 13.5456 4.59328 15.1808 2.43714V2.43714ZM14.1958 8.03431C15.1417 8.03431 16.8974 6.73337 19.1826 6.73337C23.1162 6.73337 24.6637 9.53372 24.6637 9.53372C24.6637 9.53372 21.6371 11.0819 21.6371 14.8385C21.6371 19.0762 25.4075 20.5366 25.4075 20.5366C25.4075 20.5366 22.7719 27.9584 19.2119 27.9584C17.5768 27.9584 16.3057 26.856 14.5829 26.856C12.8272 26.856 11.085 27.9995 9.95027 27.9995C6.69949 27.9996 2.59264 20.9593 2.59264 15.3001C2.59264 9.73219 6.06882 6.81138 9.32934 6.81138C11.449 6.81138 13.0938 8.03431 14.1958 8.03431V8.03431Z" fill="var(--fill-0, white)"/>
</g>
</svg>
