<svg preserveAspectRatio="none" width="100%" height="100%" overflow="visible" style="display: block;" viewBox="0 0 28 28" fill="none" xmlns="http://www.w3.org/2000/svg">
<g id="Employers Logo" clip-path="url(#clip0_0_200)">
<path id="Vector" d="M6.20539 16.9208L5.23075 20.5592L1.66846 20.6346C0.603859 18.66 0 16.4008 0 14C0 11.6785 0.564594 9.48922 1.56537 7.56154H1.56614L4.73758 8.14297L6.12686 11.2954C5.83609 12.1431 5.6776 13.0531 5.6776 14C5.67771 15.0277 5.86387 16.0123 6.20539 16.9208Z" fill="var(--fill-0, #FBBB00)"/>
<path id="Vector_2" d="M27.7554 11.3846C27.9161 12.2315 28 13.1061 28 14C28 15.0023 27.8946 15.98 27.6938 16.9231C27.0123 20.1323 25.2315 22.9346 22.7646 24.9177L22.7639 24.9169L18.7693 24.7131L18.2039 21.1839C19.8408 20.2239 21.1201 18.7215 21.7939 16.9231H14.3078V11.3846H21.9031H27.7554Z" fill="var(--fill-0, #518EF8)"/>
<path id="Vector_3" d="M22.7639 24.9169L22.7646 24.9177C20.3654 26.8461 17.3177 28 14 28C8.66849 28 4.03312 25.02 1.66849 20.6346L6.20542 16.9208C7.38771 20.0761 10.4316 22.3223 14 22.3223C15.5339 22.3223 16.9708 21.9077 18.2039 21.1838L22.7639 24.9169Z" fill="var(--fill-0, #28B446)"/>
<path id="Vector_4" d="M22.9362 3.22306L18.4008 6.93612C17.1246 6.13845 15.6161 5.67766 14 5.67766C10.3508 5.67766 7.24999 8.02687 6.12693 11.2954L1.56616 7.56153H1.56539C3.8954 3.06923 8.58923 0 14 0C17.3969 0 20.5115 1.21002 22.9362 3.22306Z" fill="var(--fill-0, #F14336)"/>
</g>
<defs>
<clipPath id="clip0_0_200">
<rect width="28" height="28" fill="white"/>
</clipPath>
</defs>
</svg>
