<svg preserveAspectRatio="none" width="100%" height="100%" overflow="visible" style="display: block;" viewBox="0 0 28 28" fill="none" xmlns="http://www.w3.org/2000/svg">
<g id="Employers Logo" clip-path="url(#clip0_0_746)">
<path id="Vector" d="M9.52424 2.57336C10.7723 2.96217 11.1596 3.96659 11.1596 5.11141C11.1489 6.01863 11.0413 6.92584 10.8261 7.81146C10.3635 9.8311 9.79322 11.8291 9.31981 13.838C8.93248 15.4904 8.57743 17.1644 8.56667 18.8709C8.57743 19.3353 8.65275 19.7997 8.78186 20.2425C9.02932 21.1281 9.7717 21.1929 10.3312 20.6529C10.6862 20.3073 11.009 19.9401 11.2995 19.5405C12.6982 17.672 13.9355 15.6848 14.9899 13.6004C16.012 11.6023 18.3467 7.08785 18.4866 6.81784C19.2182 5.46782 21.2409 5.69462 21.8542 7.01224C22.1985 7.72506 22.3922 8.51347 22.4245 9.30189C22.4782 11.0083 22.6396 15.7712 22.7149 16.4516C22.8548 17.7692 23.694 18.1904 24.813 17.456C25.4908 17.0132 26.1041 16.4516 26.7173 15.9224C27.2876 15.4148 27.5888 15.4688 27.8686 16.1816C28.116 16.808 28.0084 17.4344 27.804 18.0284C27.1154 20.0373 25.6199 21.1065 23.6295 21.5385C22.9947 21.6789 22.3384 21.6897 21.6928 21.5817C20.2619 21.3441 19.3473 20.5125 18.7986 19.2273C18.2714 17.9852 18.11 14.4536 17.9917 14C17.798 14.4104 15.5063 19.1517 14.3013 20.9553C13.5482 22.1109 12.6336 23.1585 11.5792 24.055C10.5356 24.9298 9.35209 25.4698 7.96416 25.5022C6.28574 25.5454 5.06995 24.7786 4.23074 23.3529C3.69278 22.4349 3.46684 21.4089 3.39153 20.3505C3.28393 18.8709 3.52064 17.4236 3.84341 15.9764C3.951 15.512 4.02632 15.0368 4.14467 14.4428C3.68202 14.6804 3.38077 14.8964 3.03647 15.0152C2.62763 15.1556 2.1865 15.296 1.75614 15.2852C0.228338 15.242 0.00239563 13.5464 0.00239563 13.2656C0.518835 12.866 1.06755 12.4987 1.54095 12.0667C3.80037 10.0147 5.50032 7.55225 6.72686 4.7658C7.13571 3.84779 7.64139 3.05937 8.54516 2.57336C8.84641 2.44376 9.11539 2.43296 9.52424 2.57336Z" fill="var(--fill-0, white)"/>
</g>
<defs>
<clipPath id="clip0_0_746">
<rect width="28" height="28" fill="white"/>
</clipPath>
</defs>
</svg>
